<svg width="18" height="18" viewBox="0 0 18 18" fill="none" xmlns="http://www.w3.org/2000/svg">
<path d="M14.9182 8.61363C16.0955 7.81988 16.7704 6.66171 16.7704 5.26059C16.7704 3.86367 16.1149 0.617432 10.0583 0.617432H0.0449219V17.4287H10.6944C14.9813 17.4287 17.4428 15.5606 17.4428 12.3143C17.4428 10.731 16.5689 9.46393 14.9182 8.61363ZM9.87144 3.69822C11.9955 3.69822 12.6509 4.36214 12.6509 5.47005C12.6509 6.57585 12.0828 7.36534 9.94906 7.36534H3.83425V3.69822H9.87144ZM10.4613 14.3605H3.83662L3.8349 10.1383H10.4837C12.4524 10.1383 13.3069 10.8001 13.3069 12.3102C13.3069 13.439 12.7698 14.3605 10.4613 14.3605Z" fill="white"/>
</svg>
