<svg width="23" height="23" viewBox="0 0 23 23" fill="none" xmlns="http://www.w3.org/2000/svg">
<path fill-rule="evenodd" clip-rule="evenodd" d="M5.92683 19.9527C6.74793 19.9527 7.41609 20.6354 7.41609 21.4758C7.41609 22.3162 6.74793 23 5.92683 23C5.10573 23 4.43872 22.3162 4.43872 21.4758C4.43872 20.6354 5.10573 19.9527 5.92683 19.9527ZM18.8992 19.9527C19.7215 19.9527 20.3896 20.6354 20.3896 21.4758C20.3896 22.3162 19.7215 23 18.8992 23C18.0781 23 17.4111 22.3162 17.4111 21.4758C17.4111 20.6354 18.0781 19.9527 18.8992 19.9527ZM1.00964 0.0111664L3.40165 0.434893C3.7869 0.504337 4.08015 0.831549 4.1135 1.23174L4.38375 4.52857L5.38869 4.52901C5.55267 4.52908 5.71492 4.52916 5.87545 4.52923L7.72041 4.53013C7.86747 4.53021 8.01289 4.53028 8.15668 4.53036L10.1938 4.5315C10.3218 4.53158 10.4482 4.53165 10.5731 4.53173L12.0007 4.53266C12.1138 4.53274 12.2254 4.53282 12.3356 4.5329L13.5912 4.53384C13.6904 4.53392 13.7882 4.534 13.8846 4.53408L14.9794 4.53505C15.0655 4.53513 15.1503 4.53521 15.2339 4.53529L15.9534 4.53602C16.0298 4.5361 16.1049 4.53618 16.1789 4.53627L17.0122 4.53726C17.0772 4.53734 17.1411 4.53742 17.2039 4.53751L17.9074 4.53851C17.962 4.5386 18.0155 4.53868 18.0681 4.53876L18.5152 4.53953C18.5621 4.53961 18.608 4.5397 18.653 4.53979L19.1511 4.54082C19.1892 4.5409 19.2264 4.54099 19.2629 4.54108L19.5694 4.54186C19.6011 4.54195 19.6321 4.54204 19.6624 4.54213L19.991 4.54319C20.0156 4.54328 20.0396 4.54337 20.0629 4.54345L20.2559 4.54426C20.2755 4.54435 20.2945 4.54444 20.313 4.54453L20.5081 4.54562C20.5223 4.54571 20.536 4.5458 20.5492 4.54589L20.6556 4.54672C20.6661 4.54681 20.6761 4.5469 20.6858 4.547L20.7624 4.54783C20.7698 4.54792 20.7769 4.54802 20.7836 4.54811L20.8357 4.54896C20.8406 4.54905 20.8452 4.54914 20.8496 4.54924L20.8826 4.55009C20.8856 4.55019 20.8884 4.55028 20.891 4.55038L20.9149 4.55153L20.919 4.55182C20.9302 4.55289 20.9335 4.55328 20.9335 4.55328C21.574 4.64862 22.1375 4.99113 22.5216 5.51844C22.9057 6.04457 23.0667 6.6931 22.9747 7.34282L21.8834 15.0617C21.6775 16.5306 20.4309 17.6382 18.9819 17.6382H6.42271C4.90816 17.6382 3.6259 16.4282 3.50285 14.8805L2.44945 2.058L0.71639 1.75198C0.246038 1.66723 -0.0679135 1.21173 0.0125869 0.730325C0.0953872 0.248924 0.549639 -0.0641628 1.00964 0.0111664ZM5.15797 6.2945L4.52865 6.2941L5.22211 14.7357C5.27271 15.3854 5.79136 15.8727 6.42501 15.8727H18.9796C19.5788 15.8727 20.0905 15.416 20.1756 14.8098L21.2681 7.08976C21.2934 6.90615 21.2486 6.72253 21.1393 6.57423C21.0312 6.42474 20.8725 6.32823 20.6931 6.30233C20.6848 6.30266 20.665 6.30296 20.6341 6.30323L20.509 6.30396C20.4829 6.30407 20.4541 6.30417 20.4228 6.30427L19.7713 6.30528C19.7163 6.30532 19.6592 6.30536 19.5999 6.30538L18.0681 6.30532C17.9826 6.30529 17.8956 6.30525 17.8069 6.30521L16.0588 6.30412C15.954 6.30405 15.8482 6.30396 15.7412 6.30388L14.7521 6.30307C14.6394 6.30297 14.5259 6.30288 14.4116 6.30278L13.3638 6.30183C13.2455 6.30172 13.1266 6.30161 13.0072 6.3015L12.2855 6.30082C12.1644 6.30071 12.043 6.30059 11.9212 6.30048L10.8199 6.29942C10.6971 6.29931 10.5742 6.29919 10.4513 6.29907L9.71456 6.29837C9.59195 6.29825 9.46948 6.29814 9.34722 6.29802L8.61673 6.29735C8.49559 6.29723 8.3748 6.29712 8.25442 6.29701L7.18434 6.29607C7.06712 6.29597 6.95054 6.29587 6.83466 6.29578L5.48234 6.29472C5.37321 6.29465 5.26507 6.29457 5.15797 6.2945ZM17.1326 8.87918C17.6087 8.87918 17.9951 9.27466 17.9951 9.76195C17.9951 10.2492 17.6087 10.6447 17.1326 10.6447H13.9448C13.4675 10.6447 13.0823 10.2492 13.0823 9.76195C13.0823 9.27466 13.4675 8.87918 13.9448 8.87918H17.1326Z" fill="white"/>
</svg>
