<svg width="79" height="61" viewBox="0 0 79 61" fill="none" xmlns="http://www.w3.org/2000/svg">
<path d="M79 0.738952H70.5602C70.5602 12.3034 66.6783 17.5476 58.6442 21.184V0.734619H45.6466V25.4543C43.224 26.0965 40.6155 26.76 37.8211 27.4831C36.2605 27.8871 34.7393 28.2911 33.2688 28.6867V0.734619H20.2657V32.7911C7.13281 37.8226 0 44.7852 0 60.4966H8.44534C8.44534 49.7657 11.9273 44.4491 20.2657 40.4851V60.505H33.2688V35.9683C35.4773 35.3473 37.8212 34.7221 40.3734 34.0628C42.1763 33.595 43.9282 33.1442 45.6466 32.6933V60.505H58.6442V28.8185C71.0221 24.3016 79 17.5349 79 0.738952Z" fill="black"/>
</svg>
