<svg width="23" height="23" viewBox="0 0 23 23" fill="none" xmlns="http://www.w3.org/2000/svg">
<path fill-rule="evenodd" clip-rule="evenodd" d="M11.4984 1.22556C13.3251 0.013113 15.7517 -0.321842 17.8481 0.383451C22.4082 1.92731 23.8237 7.14624 22.5576 11.299C20.6039 17.8212 12.2601 22.6863 11.9062 22.8903C11.7804 22.9634 11.6411 23 11.5018 23C11.3625 23 11.2243 22.9646 11.0984 22.8927C10.7468 22.691 2.46366 17.8978 0.444835 11.3002L0.443711 11.299C-0.823533 7.14506 0.587512 1.92495 5.14307 0.383451C7.28211 -0.343072 9.61326 -0.023449 11.4984 1.22556ZM5.65986 2.06766C1.97384 3.31549 1.04812 7.47766 2.04911 10.76C3.62418 15.9046 9.84693 20.0644 11.5006 21.0941C13.16 20.0538 19.4277 15.848 20.9522 10.7647C21.9532 7.47884 21.0241 3.31667 17.3324 2.06766C15.5439 1.46498 13.4577 1.83178 12.0174 3.00176C11.7163 3.24472 11.2984 3.24944 10.9951 3.00884C9.46946 1.80465 7.47647 1.452 5.65986 2.06766ZM16.2539 4.40987C17.7852 4.93 18.8581 6.35356 18.9895 8.03659C19.0266 8.52369 18.6817 8.95064 18.2177 8.98956C18.1941 8.99192 18.1716 8.9931 18.1481 8.9931C17.7133 8.9931 17.3448 8.64281 17.3088 8.18048C17.2347 7.21099 16.6168 6.39248 15.7371 6.09408C15.2934 5.94312 15.0507 5.44422 15.1934 4.98071C15.3383 4.51602 15.809 4.26362 16.2539 4.40987Z" fill="white"/>
</svg>
