<svg width="35" height="30" viewBox="0 0 35 30" fill="none" xmlns="http://www.w3.org/2000/svg">
<path d="M34.6651 0.00213351H31.0286C31.0286 5.69665 29.3561 8.27894 25.8945 10.0696V0H20.2943V12.1723C19.2504 12.4886 18.1265 12.8153 16.9225 13.1713C16.2501 13.3703 15.5947 13.5692 14.9611 13.764V0H9.35849V15.7851C3.69999 18.2627 0.626709 21.6912 0.626709 29.4276H4.26551C4.26551 24.1436 5.76579 21.5256 9.35849 19.5737V29.4318H14.9611V17.3496C15.9127 17.0438 16.9225 16.7359 18.0222 16.4113C18.799 16.1809 19.5539 15.9589 20.2943 15.7369V29.4318H25.8945V13.8289C31.2277 11.6047 34.6651 8.2727 34.6651 0.00213351Z" fill="white"/>
</svg>
