<svg width="23" height="23" viewBox="0 0 23 23" fill="none" xmlns="http://www.w3.org/2000/svg">
<path fill-rule="evenodd" clip-rule="evenodd" d="M11.0536 0C17.1484 0 22.106 4.84825 22.106 10.8087C22.106 13.6208 21.0025 16.1856 19.1967 18.1105L22.75 21.5782C23.0826 21.9034 23.0837 22.4295 22.7512 22.7547C22.5854 22.919 22.3664 23 22.1485 23C21.9317 23 21.7138 22.919 21.5469 22.7569L17.9507 19.2498C16.0589 20.7314 13.6603 21.6184 11.0536 21.6184C4.95873 21.6184 0 16.7691 0 10.8087C0 4.84825 4.95873 0 11.0536 0ZM11.0536 1.66492C5.89736 1.66492 1.70247 5.76618 1.70247 10.8087C1.70247 15.8512 5.89736 19.9535 11.0536 19.9535C16.2087 19.9535 20.4036 15.8512 20.4036 10.8087C20.4036 5.76618 16.2087 1.66492 11.0536 1.66492Z" fill="white"/>
</svg>
